# Made in Blockbench 5.0.7
mtllib 3rd_rail.mtl

o cube
v -0.84375 0.05000000000000002 0.024999999999999994
v -0.84375 0.05000000000000002 -0.03125
v -0.84375 0.03125 0.024999999999999994
v -0.84375 0.03125 -0.03125
v -1.2187499999999996 0.05000000000000002 -0.03125
v -1.2187499999999996 0.05000000000000002 0.024999999999999994
v -1.2187499999999996 0.03125 -0.03125
v -1.2187499999999996 0.03125 0.024999999999999994
vt 0 0.946875
vt 0.18749999999999972 0.946875
vt 0.18749999999999972 0.9375
vt 0 0.9375
vt 0.018750000000000003 0.946875
vt 0.046875 0.946875
vt 0.046875 0.9375
vt 0.018750000000000003 0.9375
vt 0.0625 0.946875
vt 0.24999999999999972 0.946875
vt 0.24999999999999972 0.9375
vt 0.0625 0.9375
vt 0.015625 0.946875
vt 0.04375 0.946875
vt 0.04375 0.9375
vt 0.015625 0.9375
vt 0.0625 0.984375
vt 0.24999999999999972 0.984375
vt 0.24999999999999972 0.95625
vt 0.0625 0.95625
vt 0.0625 0.98125
vt 0.24999999999999972 0.98125
vt 0.24999999999999972 0.953125
vt 0.0625 0.953125
vn 0 0 -1
vn 1 0 0
vn 0 0 1
vn -1 0 0
vn 0 1 0
vn 0 -1 0
usemtl m_07b663bd-8cd3-a904-617d-ed2af42d20d4
f 4/4/1 7/3/1 5/2/1 2/1/1
f 3/8/2 4/7/2 2/6/2 1/5/2
f 8/12/3 3/11/3 1/10/3 6/9/3
f 7/16/4 8/15/4 6/14/4 5/13/4
f 6/20/5 1/19/5 2/18/5 5/17/5
f 7/24/6 4/23/6 3/22/6 8/21/6
o cube
v -0.84375 0.08125000000000002 -0.03125000000000002
v -0.84375 0.08125000000000002 -0.043750000000000004
v -0.84375 0.03125 -0.03125000000000002
v -0.84375 0.03125 -0.043750000000000004
v -1.2187499999999996 0.08125000000000002 -0.043750000000000004
v -1.2187499999999996 0.08125000000000002 -0.03125000000000002
v -1.2187499999999996 0.03125 -0.043750000000000004
v -1.2187499999999996 0.03125 -0.03125000000000002
vt 0 0.9625
vt 0.18749999999999972 0.9625
vt 0.18749999999999972 0.9375
vt 0 0.9375
vt 0.04062500000000001 0.9625
vt 0.046875 0.9625
vt 0.046875 0.9375
vt 0.04062500000000001 0.9375
vt 0.0625 0.9625
vt 0.24999999999999972 0.9625
vt 0.24999999999999972 0.9375
vt 0.0625 0.9375
vt 0.015625 0.9625
vt 0.02187499999999999 0.9625
vt 0.02187499999999999 0.9375
vt 0.015625 0.9375
vt 0.0625 0.984375
vt 0.24999999999999972 0.984375
vt 0.24999999999999972 0.978125
vt 0.0625 0.978125
vt 0.0625 0.959375
vt 0.24999999999999972 0.959375
vt 0.24999999999999972 0.953125
vt 0.0625 0.953125
vn 0 0 -1
vn 1 0 0
vn 0 0 1
vn -1 0 0
vn 0 1 0
vn 0 -1 0
usemtl m_07b663bd-8cd3-a904-617d-ed2af42d20d4
f 12/28/7 15/27/7 13/26/7 10/25/7
f 11/32/8 12/31/8 10/30/8 9/29/8
f 16/36/9 11/35/9 9/34/9 14/33/9
f 15/40/10 16/39/10 14/38/10 13/37/10
f 14/44/11 9/43/11 10/42/11 13/41/11
f 15/48/12 12/47/12 11/46/12 16/45/12
o cube
v -0.84375 0.08125000000000002 0.037499999999999985
v -0.84375 0.08125000000000002 0.025
v -0.84375 0.03125 0.037499999999999985
v -0.84375 0.03125 0.025
v -1.2187499999999996 0.08125000000000002 0.025
v -1.2187499999999996 0.08125000000000002 0.037499999999999985
v -1.2187499999999996 0.03125 0.025
v -1.2187499999999996 0.03125 0.037499999999999985
vt 0 0.9625
vt 0.18749999999999972 0.9625
vt 0.18749999999999972 0.9375
vt 0 0.9375
vt 0.04062500000000001 0.9625
vt 0.046875 0.9625
vt 0.046875 0.9375
vt 0.04062500000000001 0.9375
vt 0.0625 0.9625
vt 0.24999999999999972 0.9625
vt 0.24999999999999972 0.9375
vt 0.0625 0.9375
vt 0.015625 0.9625
vt 0.02187499999999999 0.9625
vt 0.02187499999999999 0.9375
vt 0.015625 0.9375
vt 0.0625 0.984375
vt 0.24999999999999972 0.984375
vt 0.24999999999999972 0.978125
vt 0.0625 0.978125
vt 0.0625 0.959375
vt 0.24999999999999972 0.959375
vt 0.24999999999999972 0.953125
vt 0.0625 0.953125
vn 0 0 -1
vn 1 0 0
vn 0 0 1
vn -1 0 0
vn 0 1 0
vn 0 -1 0
usemtl m_07b663bd-8cd3-a904-617d-ed2af42d20d4
f 20/52/13 23/51/13 21/50/13 18/49/13
f 19/56/14 20/55/14 18/54/14 17/53/14
f 24/60/15 19/59/15 17/58/15 22/57/15
f 23/64/16 24/63/16 22/62/16 21/61/16
f 22/68/17 17/67/17 18/66/17 21/65/17
f 23/72/18 20/71/18 19/70/18 24/69/18
o cube
v -1.21875 0.05000000000000002 0.024999999999999994
v -1.21875 0.05000000000000002 -0.03125
v -1.21875 0.03125 0.024999999999999994
v -1.21875 0.03125 -0.03125
v -1.3437499999999996 0.05000000000000002 -0.03125
v -1.3437499999999996 0.05000000000000002 0.024999999999999994
v -1.3437499999999996 0.03125 -0.03125
v -1.3437499999999996 0.03125 0.024999999999999994
vt 0 0.946875
vt 0.06249999999999978 0.946875
vt 0.06249999999999978 0.9375
vt 0 0.9375
vt 0.018750000000000003 0.946875
vt 0.046875 0.946875
vt 0.046875 0.9375
vt 0.018750000000000003 0.9375
vt 0.1875 0.946875
vt 0.24999999999999978 0.946875
vt 0.24999999999999978 0.9375
vt 0.1875 0.9375
vt 0.015625 0.946875
vt 0.04375 0.946875
vt 0.04375 0.9375
vt 0.015625 0.9375
vt 0.1875 0.984375
vt 0.24999999999999978 0.984375
vt 0.24999999999999978 0.95625
vt 0.1875 0.95625
vt 0.1875 0.98125
vt 0.24999999999999978 0.98125
vt 0.24999999999999978 0.953125
vt 0.1875 0.953125
vn 0 0 -1
vn 1 0 0
vn 0 0 1
vn -1 0 0
vn 0 1 0
vn 0 -1 0
usemtl m_07b663bd-8cd3-a904-617d-ed2af42d20d4
f 28/76/19 31/75/19 29/74/19 26/73/19
f 27/80/20 28/79/20 26/78/20 25/77/20
f 32/84/21 27/83/21 25/82/21 30/81/21
f 31/88/22 32/87/22 30/86/22 29/85/22
f 30/92/23 25/91/23 26/90/23 29/89/23
f 31/96/24 28/95/24 27/94/24 32/93/24
o cube
v -1.21875 0.08125000000000002 0.037499999999999985
v -1.21875 0.08125000000000002 0.025
v -1.21875 0.03125 0.037499999999999985
v -1.21875 0.03125 0.025
v -1.3437499999999996 0.08125000000000002 0.025
v -1.3437499999999996 0.08125000000000002 0.037499999999999985
v -1.3437499999999996 0.03125 0.025
v -1.3437499999999996 0.03125 0.037499999999999985
vt 0 0.9625
vt 0.06249999999999978 0.9625
vt 0.06249999999999978 0.9375
vt 0 0.9375
vt 0.04062500000000001 0.9625
vt 0.046875 0.9625
vt 0.046875 0.9375
vt 0.04062500000000001 0.9375
vt 0.1875 0.9625
vt 0.24999999999999978 0.9625
vt 0.24999999999999978 0.9375
vt 0.1875 0.9375
vt 0.015625 0.9625
vt 0.02187499999999999 0.9625
vt 0.02187499999999999 0.9375
vt 0.015625 0.9375
vt 0.1875 0.984375
vt 0.24999999999999978 0.984375
vt 0.24999999999999978 0.978125
vt 0.1875 0.978125
vt 0.1875 0.959375
vt 0.24999999999999978 0.959375
vt 0.24999999999999978 0.953125
vt 0.1875 0.953125
vn 0 0 -1
vn 1 0 0
vn 0 0 1
vn -1 0 0
vn 0 1 0
vn 0 -1 0
usemtl m_07b663bd-8cd3-a904-617d-ed2af42d20d4
f 36/100/25 39/99/25 37/98/25 34/97/25
f 35/104/26 36/103/26 34/102/26 33/101/26
f 40/108/27 35/107/27 33/106/27 38/105/27
f 39/112/28 40/111/28 38/110/28 37/109/28
f 38/116/29 33/115/29 34/114/29 37/113/29
f 39/120/30 36/119/30 35/118/30 40/117/30
o cube
v -1.21875 0.08125000000000002 -0.03125000000000002
v -1.21875 0.08125000000000002 -0.043750000000000004
v -1.21875 0.03125 -0.03125000000000002
v -1.21875 0.03125 -0.043750000000000004
v -1.3437499999999996 0.08125000000000002 -0.043750000000000004
v -1.3437499999999996 0.08125000000000002 -0.03125000000000002
v -1.3437499999999996 0.03125 -0.043750000000000004
v -1.3437499999999996 0.03125 -0.03125000000000002
vt 0 0.9625
vt 0.06249999999999978 0.9625
vt 0.06249999999999978 0.9375
vt 0 0.9375
vt 0.04062500000000001 0.9625
vt 0.046875 0.9625
vt 0.046875 0.9375
vt 0.04062500000000001 0.9375
vt 0.1875 0.9625
vt 0.24999999999999978 0.9625
vt 0.24999999999999978 0.9375
vt 0.1875 0.9375
vt 0.015625 0.9625
vt 0.02187499999999999 0.9625
vt 0.02187499999999999 0.9375
vt 0.015625 0.9375
vt 0.1875 0.984375
vt 0.24999999999999978 0.984375
vt 0.24999999999999978 0.978125
vt 0.1875 0.978125
vt 0.1875 0.959375
vt 0.24999999999999978 0.959375
vt 0.24999999999999978 0.953125
vt 0.1875 0.953125
vn 0 0 -1
vn 1 0 0
vn 0 0 1
vn -1 0 0
vn 0 1 0
vn 0 -1 0
usemtl m_07b663bd-8cd3-a904-617d-ed2af42d20d4
f 44/124/31 47/123/31 45/122/31 42/121/31
f 43/128/32 44/127/32 42/126/32 41/125/32
f 48/132/33 43/131/33 41/130/33 46/129/33
f 47/136/34 48/135/34 46/134/34 45/133/34
f 46/140/35 41/139/35 42/138/35 45/137/35
f 47/144/36 44/143/36 43/142/36 48/141/36
o cube
v -1.330033283286521 0.043964500196809364 0.024999999999999994
v -1.330033283286521 0.043964500196809364 -0.03125
v -1.3438572333517107 0.03129718380401575 0.024999999999999994
v -1.3438572333517107 0.03129718380401575 -0.03125
v -1.4144820592384781 0.13612416729807453 -0.03125
v -1.4144820592384781 0.13612416729807453 0.024999999999999994
v -1.428306009303668 0.1234568509052809 -0.03125
v -1.428306009303668 0.1234568509052809 0.024999999999999994
vt 0 0.946875
vt 0.06249999999999978 0.946875
vt 0.06249999999999978 0.9375
vt 0 0.9375
vt 0.018750000000000003 0.946875
vt 0.046875 0.946875
vt 0.046875 0.9375
vt 0.018750000000000003 0.9375
vt 0.1875 0.946875
vt 0.24999999999999978 0.946875
vt 0.24999999999999978 0.9375
vt 0.1875 0.9375
vt 0.015625 0.946875
vt 0.04375 0.946875
vt 0.04375 0.9375
vt 0.015625 0.9375
vt 0.1875 0.984375
vt 0.24999999999999978 0.984375
vt 0.24999999999999978 0.95625
vt 0.1875 0.95625
vt 0.1875 0.98125
vt 0.24999999999999978 0.98125
vt 0.24999999999999978 0.953125
vt 0.1875 0.953125
vn 0 0 -1
vn 0.6755902076156604 -0.7372773368101241 0
vn 0 0 1
vn -0.6755902076156604 0.7372773368101241 0
vn 0.7372773368101241 0.6755902076156604 0
vn -0.7372773368101241 -0.6755902076156604 0
usemtl m_07b663bd-8cd3-a904-617d-ed2af42d20d4
f 52/148/37 55/147/37 53/146/37 50/145/37
f 51/152/38 52/151/38 50/150/38 49/149/38
f 56/156/39 51/155/39 49/154/39 54/153/39
f 55/160/40 56/159/40 54/158/40 53/157/40
f 54/164/41 49/163/41 50/162/41 53/161/41
f 55/168/42 52/167/42 51/166/42 56/165/42
o cube
v -1.3069933665112046 0.06507669418479875 -0.03125000000000002
v -1.3069933665112046 0.06507669418479875 -0.043750000000000004
v -1.3438572333517107 0.03129718380401575 -0.03125000000000002
v -1.3438572333517107 0.03129718380401575 -0.043750000000000004
v -1.3914421424631618 0.1572363612860639 -0.043750000000000004
v -1.3914421424631618 0.1572363612860639 -0.03125000000000002
v -1.428306009303668 0.1234568509052809 -0.043750000000000004
v -1.428306009303668 0.1234568509052809 -0.03125000000000002
vt 0 0.9625
vt 0.06249999999999978 0.9625
vt 0.06249999999999978 0.9375
vt 0 0.9375
vt 0.04062500000000001 0.9625
vt 0.046875 0.9625
vt 0.046875 0.9375
vt 0.04062500000000001 0.9375
vt 0.1875 0.9625
vt 0.24999999999999978 0.9625
vt 0.24999999999999978 0.9375
vt 0.1875 0.9375
vt 0.015625 0.9625
vt 0.02187499999999999 0.9625
vt 0.02187499999999999 0.9375
vt 0.015625 0.9375
vt 0.1875 0.984375
vt 0.24999999999999978 0.984375
vt 0.24999999999999978 0.978125
vt 0.1875 0.978125
vt 0.1875 0.959375
vt 0.24999999999999978 0.959375
vt 0.24999999999999978 0.953125
vt 0.1875 0.953125
vn 0 0 -1
vn 0.6755902076156604 -0.7372773368101241 0
vn 0 0 1
vn -0.6755902076156604 0.7372773368101241 0
vn 0.7372773368101241 0.6755902076156604 0
vn -0.7372773368101241 -0.6755902076156604 0
usemtl m_07b663bd-8cd3-a904-617d-ed2af42d20d4
f 60/172/43 63/171/43 61/170/43 58/169/43
f 59/176/44 60/175/44 58/174/44 57/173/44
f 64/180/45 59/179/45 57/178/45 62/177/45
f 63/184/46 64/183/46 62/182/46 61/181/46
f 62/188/47 57/187/47 58/186/47 61/185/47
f 63/192/48 60/191/48 59/190/48 64/189/48
o cube
v -1.3069933665112046 0.06507669418479875 0.037499999999999985
v -1.3069933665112046 0.06507669418479875 0.025
v -1.3438572333517107 0.03129718380401575 0.037499999999999985
v -1.3438572333517107 0.03129718380401575 0.025
v -1.3914421424631618 0.1572363612860639 0.025
v -1.3914421424631618 0.1572363612860639 0.037499999999999985
v -1.428306009303668 0.1234568509052809 0.025
v -1.428306009303668 0.1234568509052809 0.037499999999999985
vt 0 0.9625
vt 0.06249999999999978 0.9625
vt 0.06249999999999978 0.9375
vt 0 0.9375
vt 0.04062500000000001 0.9625
vt 0.046875 0.9625
vt 0.046875 0.9375
vt 0.04062500000000001 0.9375
vt 0.1875 0.9625
vt 0.24999999999999978 0.9625
vt 0.24999999999999978 0.9375
vt 0.1875 0.9375
vt 0.015625 0.9625
vt 0.02187499999999999 0.9625
vt 0.02187499999999999 0.9375
vt 0.015625 0.9375
vt 0.1875 0.984375
vt 0.24999999999999978 0.984375
vt 0.24999999999999978 0.978125
vt 0.1875 0.978125
vt 0.1875 0.959375
vt 0.24999999999999978 0.959375
vt 0.24999999999999978 0.953125
vt 0.1875 0.953125
vn 0 0 -1
vn 0.6755902076156604 -0.7372773368101241 0
vn 0 0 1
vn -0.6755902076156604 0.7372773368101241 0
vn 0.7372773368101241 0.6755902076156604 0
vn -0.7372773368101241 -0.6755902076156604 0
usemtl m_07b663bd-8cd3-a904-617d-ed2af42d20d4
f 68/196/49 71/195/49 69/194/49 66/193/49
f 67/200/50 68/199/50 66/198/50 65/197/50
f 72/204/51 67/203/51 65/202/51 70/201/51
f 71/208/52 72/207/52 70/206/52 69/205/52
f 70/212/53 65/211/53 66/210/53 69/209/53
f 71/216/54 68/215/54 67/214/54 72/213/54
o cube
v -1.3760759696374107 0.12126814842387604 0.037499999999999985
v -1.3760759696374107 0.12126814842387604 0.025
v -1.4260283807165037 0.12344911779214285 0.037499999999999985
v -1.4260283807165037 0.12344911779214285 0.025
v -1.3651711227960768 0.37103020381934004 0.025
v -1.3651711227960768 0.37103020381934004 0.037499999999999985
v -1.4151235338751698 0.3732111731876068 0.025
v -1.4151235338751698 0.3732111731876068 0.037499999999999985
vt 0 0.9625
vt 0.12499999999999978 0.9625
vt 0.12499999999999978 0.9375
vt 0 0.9375
vt 0.04062500000000001 0.9625
vt 0.046875 0.9625
vt 0.046875 0.9375
vt 0.04062500000000001 0.9375
vt 0.125 0.9625
vt 0.24999999999999978 0.9625
vt 0.24999999999999978 0.9375
vt 0.125 0.9375
vt 0.015625 0.9625
vt 0.02187499999999999 0.9625
vt 0.02187499999999999 0.9375
vt 0.015625 0.9375
vt 0.125 0.984375
vt 0.24999999999999978 0.984375
vt 0.24999999999999978 0.978125
vt 0.125 0.978125
vt 0.125 0.959375
vt 0.24999999999999978 0.959375
vt 0.24999999999999978 0.953125
vt 0.125 0.953125
vn 0 0 -1
vn -0.04361938736533589 -0.9990482215818579 0
vn 0 0 1
vn 0.04361938736533589 0.9990482215818579 0
vn 0.9990482215818579 -0.04361938736533589 0
vn -0.9990482215818579 0.04361938736533589 0
usemtl m_07b663bd-8cd3-a904-617d-ed2af42d20d4
f 76/220/55 79/219/55 77/218/55 74/217/55
f 75/224/56 76/223/56 74/222/56 73/221/56
f 80/228/57 75/227/57 73/226/57 78/225/57
f 79/232/58 80/231/58 78/230/58 77/229/58
f 78/236/59 73/235/59 74/234/59 77/233/59
f 79/240/60 76/239/60 75/238/60 80/237/60
o cube
v -1.4072962265618438 0.12263125427904278 0.024999999999999994
v -1.4072962265618438 0.12263125427904278 -0.03125
v -1.4260283807165037 0.12344911779214285 0.024999999999999994
v -1.4260283807165037 0.12344911779214285 -0.03125
v -1.3963913797205099 0.3723933096745068 -0.03125
v -1.3963913797205099 0.3723933096745068 0.024999999999999994
v -1.4151235338751698 0.3732111731876068 -0.03125
v -1.4151235338751698 0.3732111731876068 0.024999999999999994
vt 0 0.946875
vt 0.12499999999999978 0.946875
vt 0.12499999999999978 0.9375
vt 0 0.9375
vt 0.018750000000000003 0.946875
vt 0.046875 0.946875
vt 0.046875 0.9375
vt 0.018750000000000003 0.9375
vt 0.125 0.946875
vt 0.24999999999999978 0.946875
vt 0.24999999999999978 0.9375
vt 0.125 0.9375
vt 0.015625 0.946875
vt 0.04375 0.946875
vt 0.04375 0.9375
vt 0.015625 0.9375
vt 0.125 0.984375
vt 0.24999999999999978 0.984375
vt 0.24999999999999978 0.95625
vt 0.125 0.95625
vt 0.125 0.98125
vt 0.24999999999999978 0.98125
vt 0.24999999999999978 0.953125
vt 0.125 0.953125
vn 0 0 -1
vn -0.04361938736533589 -0.9990482215818579 0
vn 0 0 1
vn 0.04361938736533589 0.9990482215818579 0
vn 0.9990482215818579 -0.04361938736533589 0
vn -0.9990482215818579 0.04361938736533589 0
usemtl m_07b663bd-8cd3-a904-617d-ed2af42d20d4
f 84/244/61 87/243/61 85/242/61 82/241/61
f 83/248/62 84/247/62 82/246/62 81/245/62
f 88/252/63 83/251/63 81/250/63 86/249/63
f 87/256/64 88/255/64 86/254/64 85/253/64
f 86/260/65 81/259/65 82/258/65 85/257/65
f 87/264/66 84/263/66 83/262/66 88/261/66
o cube
v -1.3760759696374107 0.12126814842387604 -0.03125000000000002
v -1.3760759696374107 0.12126814842387604 -0.043750000000000004
v -1.4260283807165037 0.12344911779214285 -0.03125000000000002
v -1.4260283807165037 0.12344911779214285 -0.043750000000000004
v -1.3651711227960768 0.37103020381934004 -0.043750000000000004
v -1.3651711227960768 0.37103020381934004 -0.03125000000000002
v -1.4151235338751698 0.3732111731876068 -0.043750000000000004
v -1.4151235338751698 0.3732111731876068 -0.03125000000000002
vt 0 0.9625
vt 0.12499999999999978 0.9625
vt 0.12499999999999978 0.9375
vt 0 0.9375
vt 0.04062500000000001 0.9625
vt 0.046875 0.9625
vt 0.046875 0.9375
vt 0.04062500000000001 0.9375
vt 0.125 0.9625
vt 0.24999999999999978 0.9625
vt 0.24999999999999978 0.9375
vt 0.125 0.9375
vt 0.015625 0.9625
vt 0.02187499999999999 0.9625
vt 0.02187499999999999 0.9375
vt 0.015625 0.9375
vt 0.125 0.984375
vt 0.24999999999999978 0.984375
vt 0.24999999999999978 0.978125
vt 0.125 0.978125
vt 0.125 0.959375
vt 0.24999999999999978 0.959375
vt 0.24999999999999978 0.953125
vt 0.125 0.953125
vn 0 0 -1
vn -0.04361938736533589 -0.9990482215818579 0
vn 0 0 1
vn 0.04361938736533589 0.9990482215818579 0
vn 0.9990482215818579 -0.04361938736533589 0
vn -0.9990482215818579 0.04361938736533589 0
usemtl m_07b663bd-8cd3-a904-617d-ed2af42d20d4
f 92/268/67 95/267/67 93/266/67 90/265/67
f 91/272/68 92/271/68 90/270/68 89/269/68
f 96/276/69 91/275/69 89/274/69 94/273/69
f 95/280/70 96/279/70 94/278/70 93/277/70
f 94/284/71 89/283/71 90/282/71 93/281/71
f 95/288/72 92/287/72 91/286/72 96/285/72
o mesh
v -1.25 0.4375 0.34375
v -1.25 0.4375 -0.34375
v -1.25 0.3125 0.34375
v -1.25 0.3125 -0.34375
v -1.375 0.4375 0.34375
v -1.375 0.4375 -0.34375
v -1.375 0.3125 0.34375
v -1.375 0.3125 -0.34375
v -1.3092137248005575 0.45000000000000007 0.34375
v -1.3152394518626802 0.45000000000000007 -0.34375
vt 0.5 0.90625
vt 0 0.90625
vt 0 0.65625
vt 0.5 0.65625
vt 0.5 0.65625
vt 0.5 0.90625
vt 0 0.90625
vt 0 0.65625
vt 1 0
vt 1 0.5
vt 0.5 0.5
vt 0.5 0
vt 0 0.40625
vt 0.26314510079776987 0.40625
vt 0.23904219254927916 0.90625
vt 0 0.90625
vt 0.26314510079776987 0.40625
vt 0.5 0.40625
vt 0.5 0.90625
vt 0.23904219254927916 0.90625
vt 0.5 0.65625
vt 0.5 0.90625
vt 0.26314510079776987 0.90625
vt 0 0.65625
vt 0.26314510079776987 0.90625
vt 0 0.90625
vt 0 0.65625
vt 0.5 0.65625
vt 0.5 0.90625
vt 0.26095780745072084 0.90625
vt 0 0.65625
vt 0.26095780745072084 0.90625
vt 0 0.90625
vt 0 0.65625
vn 1 0 0
vn -1 0 0
vn 0 -1 0
vn -0.18666915507296214 0.9824214725501779 0.0016360980063806875
vn 0.20654766745530692 0.9784365391116442 0
vn 0 0 1
vn 0 0 1
vn 0 0 -1
vn 0 0 -1
usemtl m_07b663bd-8cd3-a904-617d-ed2af42d20d4
f 98/289/73 97/290/73 99/291/73 100/292/73
f 103/293/74 101/294/74 102/295/74 104/296/74
f 100/297/75 99/298/75 103/299/75 104/300/75
f 101/301/76 105/302/76 106/303/76 102/304/76
f 105/305/77 97/306/77 98/307/77 106/308/77
f 99/309/78 97/310/78 105/311/78 103/312/78
f 105/313/79 101/314/79 103/315/79
f 104/316/80 102/317/80 106/318/80 100/319/80
f 106/320/81 98/321/81 100/322/81
o mesh
v -1.25 0.4375 -0.34375
v -1.28125 0.4375 -0.78125
v -1.25 0.3125 -0.34375
v -1.30625 0.4374999999999999 -0.78125
v -1.375 0.4375 -0.34375
v -1.34375 0.4375 -0.78125
v -1.375 0.3125 -0.34375
v -1.31875 0.4374999999999998 -0.78125
v -1.3092137248005575 0.45000000000000007 -0.34375
v -1.3152394518626802 0.45000000000000007 -0.78125
vt 0.5 0.90625
vt 0 0.90625
vt 0 0.65625
vt 0.5 0.65625
vt 0.5 0.65625
vt 0.5 0.90625
vt 0 0.90625
vt 0 0.65625
vt 1 0
vt 1 0.5
vt 0.5 0.5
vt 0.5 0
vt 0 0.40625
vt 0.26314510079776987 0.40625
vt 0.23904219254927916 0.90625
vt 0 0.90625
vt 0.26314510079776987 0.40625
vt 0.5 0.40625
vt 0.5 0.90625
vt 0.23904219254927916 0.90625
vt 0.5 0.65625
vt 0.5 0.90625
vt 0.26314510079776987 0.90625
vt 0 0.65625
vt 0.26314510079776987 0.90625
vt 0 0.90625
vt 0 0.65625
vt 0.5 0.65625
vt 0.5 0.90625
vt 0.26095780745072084 0.90625
vt 0 0.65625
vt 0.26095780745072084 0.90625
vt 0 0.90625
vt 0 0.65625
vn 0.9974586998307351 0 -0.07124704998790965
vn -0.9974586998307351 0 -0.07124704998790965
vn 0 -0.9615239476408234 -0.2747211278973779
vn -0.18666878796286288 0.9824195404856964 0.0025710060966433433
vn 0.206525192236565 0.9783300717982508 -0.014751799445468925
vn 0 0 1
vn 0 0 1
vn 0 0 -1
vn 0 0 -1
usemtl m_07b663bd-8cd3-a904-617d-ed2af42d20d4
f 108/323/82 107/324/82 109/325/82 110/326/82
f 113/327/83 111/328/83 112/329/83 114/330/83
f 110/331/84 109/332/84 113/333/84 114/334/84
f 111/335/85 115/336/85 116/337/85 112/338/85
f 115/339/86 107/340/86 108/341/86 116/342/86
f 109/343/87 107/344/87 115/345/87 113/346/87
f 115/347/88 111/348/88 113/349/88
f 114/350/89 112/351/89 116/352/89 110/353/89
f 116/354/90 108/355/90 110/356/90
o mesh
v -1.25 0.4375 0.34375
v -1.28125 0.4375 0.78125
v -1.25 0.3125 0.34375
v -1.30625 0.4374999999999999 0.78125
v -1.375 0.4375 0.34375
v -1.34375 0.4375 0.78125
v -1.375 0.3125 0.34375
v -1.31875 0.4374999999999998 0.78125
v -1.3092137248005575 0.45000000000000007 0.34375
v -1.3152394518626802 0.45000000000000007 0.78125
vt 0 0.65625
vt 0 0.90625
vt 0.5 0.90625
vt 0.5 0.65625
vt 0 0.65625
vt 0.5 0.65625
vt 0.5 0.40625
vt 0 0.40625
vt 0.5 0.5
vt 1 0.5
vt 1 0
vt 0.5 0
vt 0.23904219254927916 0.90625
vt 0.26314510079776987 0.40625
vt 0 0.40625
vt 0 0.90625
vt 0.5 0.90625
vt 0.5 0.40625
vt 0.26314510079776987 0.40625
vt 0.23904219254927916 0.90625
vt 0.26314510079776987 0.65625
vt 0.5 0.65625
vt 0.5 0.40625
vt 0 0.40625
vt 0 0.65625
vt 0.26314510079776987 0.65625
vt 0 0.40625
vt 0.26095780745072084 0.90625
vt 0.5 0.90625
vt 0.5 0.65625
vt 0 0.65625
vt 0 0.90625
vt 0.26095780745072084 0.90625
vt 0 0.65625
vn 0.9974586998307351 0 0.07124704998790965
vn -0.9974586998307351 0 0.07124704998790965
vn 0 -0.9615239476408234 0.27472112789737785
vn -0.18666878796286288 0.9824195404856964 -0.002571006096643343
vn 0.206525192236565 0.9783300717982508 0.014751799445468929
vn 0 0 -1
vn 0 0 -1
vn 0 0 1
vn 0 0 1
usemtl m_07b663bd-8cd3-a904-617d-ed2af42d20d4
f 119/357/91 117/358/91 118/359/91 120/360/91
f 122/361/92 121/362/92 123/363/92 124/364/92
f 123/365/93 119/366/93 120/367/93 124/368/93
f 126/369/94 125/370/94 121/371/94 122/372/94
f 118/373/95 117/374/95 125/375/95 126/376/95
f 125/377/96 117/378/96 119/379/96 123/380/96
f 121/381/97 125/382/97 123/383/97
f 126/384/98 122/385/98 124/386/98 120/387/98
f 118/388/99 126/389/99 120/390/99