# Made in Blockbench 5.0.7
mtllib bare_3rd_rail.mtl

o cube
v -1 0.16875 1
v -1 0.16875 -1
v -1 0.15625 1
v -1 0.15625 -1
v -1.09375 0.16875 1
v -1.09375 0.16875 -1
v -1.09375 0.15625 1
v -1.09375 0.15625 -1
v -1.03125 0.2625 1
v -1.03125 0.2625 -1
v -1.03125 0.16875 1
v -1.03125 0.16875 -1
v -1.0625 0.2625 1
v -1.0625 0.2625 -1
v -1.0625 0.16875 1
v -1.0625 0.16875 -1
v -1.015625 0.3125 1
v -1.015625 0.3125 -1
v -1.015625 0.2625 1
v -1.015625 0.2625 -1
v -1.078125 0.3125 1
v -1.078125 0.3125 -1
v -1.078125 0.2625 1
v -1.078125 0.2625 -1
vt 0.25 0.625
vt 0.25 0.640625
vt 0.21875 0.640625
vt 0.21875 0.625
vt 0.390625 0.765625
vt 0.390625 0.78125
vt 0.359375 0.78125
vt 0.359375 0.765625
vt 0.328125 0.65625
vt 0.328125 0.6875
vt 0.3125 0.6875
vt 0.3125 0.65625
vt 0.359375 0.65625
vt 0.359375 0.6875
vt 0.34375 0.6875
vt 0.34375 0.65625
vt 0.328125 0.59375
vt 0.328125 0.609375
vt 0.3125 0.609375
vt 0.3125 0.59375
vt 0.359375 0.59375
vt 0.359375 0.609375
vt 0.34375 0.609375
vt 0.34375 0.59375
vt 0.875 0.828125
vt 0.875 0.84375
vt 0.21875 0.84375
vt 0.21875 0.828125
vt 0.875 0.796875
vt 0.875 0.8125
vt 0.21875 0.8125
vt 0.21875 0.796875
vt 0.03125 0.25
vt 0.03125 0.90625
vt 0 0.90625
vt 0 0.25
vt 0.078125 0.25
vt 0.078125 0.90625
vt 0.046875 0.90625
vt 0.046875 0.25
vt 0.65625 0.96875
vt 0.65625 1
vt 0 1
vt 0 0.96875
vt 0.65625 0.921875
vt 0.65625 0.953125
vt 0 0.953125
vt 0 0.921875
vt 0.09375 0.25
vt 0.109375 0.25
vt 0.109375 0.90625
vt 0.09375 0.90625
vt 0.125 0.25
vt 0.140625 0.25
vt 0.140625 0.90625
vt 0.125 0.90625
vt 0.8125 0.890625
vt 0.8125 0.90625
vt 0.15625 0.90625
vt 0.15625 0.890625
vt 0.8125 0.859375
vt 0.8125 0.875
vt 0.15625 0.875
vt 0.15625 0.859375
vt 0.171875 0.1875
vt 0.171875 0.84375
vt 0.15625 0.84375
vt 0.15625 0.1875
vt 0.203125 0.1875
vt 0.203125 0.84375
vt 0.1875 0.84375
vt 0.1875 0.1875
vn 0 0 1
vn 0 0 -1
vn 0 0 1
vn 0 0 -1
vn 0 0 1
vn 0 0 -1
vn 1 0 0
vn -1 0 0
vn 0 1 0
vn 0 -1 0
vn 1 0 0
vn -1 0 0
vn 0 -1 0
vn 0 1 0
vn 1 0 0
vn -1 0 0
vn 0 1 0
vn 0 -1 0
usemtl m_5d55c245-4be0-c77e-5930-198336f5514f
f 3/1/1 1/2/1 5/3/1 7/4/1
f 8/5/2 6/6/2 2/7/2 4/8/2
f 11/9/3 9/10/3 13/11/3 15/12/3
f 16/13/4 14/14/4 10/15/4 12/16/4
f 19/17/5 17/18/5 21/19/5 23/20/5
f 24/21/6 22/22/6 18/23/6 20/24/6
f 4/25/7 2/26/7 1/27/7 3/28/7
f 7/29/8 5/30/8 6/31/8 8/32/8
f 1/33/9 2/34/9 6/35/9 5/36/9
f 4/37/10 3/38/10 7/39/10 8/40/10
f 12/41/11 10/42/11 9/43/11 11/44/11
f 15/45/12 13/46/12 14/47/12 16/48/12
f 14/49/13 10/50/13 9/51/13 13/52/13
f 15/53/14 11/54/14 12/55/14 16/56/14
f 20/57/15 18/58/15 17/59/15 19/60/15
f 23/61/16 21/62/16 22/63/16 24/64/16
f 17/65/17 18/66/17 22/67/17 21/68/17
f 20/69/18 19/70/18 23/71/18 24/72/18
o cube
v -1 0.16875 -1
v -1.0125 0.16875 -1.5
v -1 0.15625 -1
v -1.0125 0.15625 -1.5
v -1.09375 0.16875 -1
v -1.08125 0.16875 -1.5
v -1.09375 0.15625 -1
v -1.08125 0.15625 -1.5
v -1.03125 0.2625 -1
v -1.04375 0.2625 -1.5
v -1.03125 0.16875 -1
v -1.04375 0.16875 -1.5
v -1.0625 0.2625 -1
v -1.05 0.2625 -1.5
v -1.0625 0.16875 -1
v -1.05 0.16875 -1.5
v -1.015625 0.3125 -1
v -1.028125 0.3125 -1.5
v -1.015625 0.2625 -1
v -1.028125 0.2625 -1.5
v -1.078125 0.3125 -1
v -1.065625 0.3125 -1.5
v -1.078125 0.2625 -1
v -1.065625 0.2625 -1.5
vt 0.25 0.625
vt 0.25 0.640625
vt 0.21875 0.640625
vt 0.21875 0.625
vt 0.390625 0.765625
vt 0.390625 0.78125
vt 0.359375 0.78125
vt 0.359375 0.765625
vt 0.328125 0.65625
vt 0.328125 0.6875
vt 0.3125 0.6875
vt 0.3125 0.65625
vt 0.359375 0.65625
vt 0.359375 0.6875
vt 0.34375 0.6875
vt 0.34375 0.65625
vt 0.328125 0.59375
vt 0.328125 0.609375
vt 0.3125 0.609375
vt 0.3125 0.59375
vt 0.359375 0.59375
vt 0.359375 0.609375
vt 0.34375 0.609375
vt 0.34375 0.59375
vt 0.875 0.828125
vt 0.875 0.84375
vt 0.21875 0.84375
vt 0.21875 0.828125
vt 0.875 0.796875
vt 0.875 0.8125
vt 0.21875 0.8125
vt 0.21875 0.796875
vt 0.03125 0.25
vt 0.03125 0.90625
vt 0 0.90625
vt 0 0.25
vt 0.078125 0.25
vt 0.078125 0.90625
vt 0.046875 0.90625
vt 0.046875 0.25
vt 0.65625 0.96875
vt 0.65625 1
vt 0 1
vt 0 0.96875
vt 0.65625 0.921875
vt 0.65625 0.953125
vt 0 0.953125
vt 0 0.921875
vt 0.09375 0.25
vt 0.109375 0.25
vt 0.109375 0.90625
vt 0.09375 0.90625
vt 0.125 0.25
vt 0.140625 0.25
vt 0.140625 0.90625
vt 0.125 0.90625
vt 0.8125 0.890625
vt 0.8125 0.90625
vt 0.15625 0.90625
vt 0.15625 0.890625
vt 0.8125 0.859375
vt 0.8125 0.875
vt 0.15625 0.875
vt 0.15625 0.859375
vt 0.171875 0.1875
vt 0.171875 0.84375
vt 0.15625 0.84375
vt 0.15625 0.1875
vt 0.203125 0.1875
vt 0.203125 0.84375
vt 0.1875 0.84375
vt 0.1875 0.1875
vn 0 0 1
vn 0 0 -1
vn 0 0 1
vn 0 0 -1
vn 0 0 1
vn 0 0 -1
vn 0.9996876464081228 0 -0.024992191160203063
vn -0.9996876464081228 0 -0.024992191160203063
vn 0 1 0
vn 0 -1 0
vn 0.9996876464081229 0 -0.024992191160203077
vn -0.9996876464081229 0 -0.024992191160203077
vn 0 -1 0
vn 0 1 0
vn 0.9996876464081228 0 -0.024992191160203063
vn -0.9996876464081228 0 -0.024992191160203063
vn 0 1 0
vn 0 -1 0
usemtl m_5d55c245-4be0-c77e-5930-198336f5514f
f 27/73/19 25/74/19 29/75/19 31/76/19
f 32/77/20 30/78/20 26/79/20 28/80/20
f 35/81/21 33/82/21 37/83/21 39/84/21
f 40/85/22 38/86/22 34/87/22 36/88/22
f 43/89/23 41/90/23 45/91/23 47/92/23
f 48/93/24 46/94/24 42/95/24 44/96/24
f 28/97/25 26/98/25 25/99/25 27/100/25
f 31/101/26 29/102/26 30/103/26 32/104/26
f 25/105/27 26/106/27 30/107/27 29/108/27
f 28/109/28 27/110/28 31/111/28 32/112/28
f 36/113/29 34/114/29 33/115/29 35/116/29
f 39/117/30 37/118/30 38/119/30 40/120/30
f 38/121/31 34/122/31 33/123/31 37/124/31
f 39/125/32 35/126/32 36/127/32 40/128/32
f 44/129/33 42/130/33 41/131/33 43/132/33
f 47/133/34 45/134/34 46/135/34 48/136/34
f 41/137/35 42/138/35 46/139/35 45/140/35
f 44/141/36 43/142/36 47/143/36 48/144/36
o cube
v -1.0125 0.16875 1.5
v -1 0.16875 1
v -1.0125 0.15625 1.5
v -1 0.15625 1
v -1.08125 0.16875 1.5
v -1.09375 0.16875 1
v -1.08125 0.15625 1.5
v -1.09375 0.15625 1
v -1.04375 0.2625 1.5
v -1.03125 0.2625 1
v -1.04375 0.16875 1.5
v -1.03125 0.16875 1
v -1.05 0.2625 1.5
v -1.0625 0.2625 1
v -1.05 0.16875 1.5
v -1.0625 0.16875 1
v -1.028125 0.3125 1.5
v -1.015625 0.3125 1
v -1.028125 0.2625 1.5
v -1.015625 0.2625 1
v -1.065625 0.3125 1.5
v -1.078125 0.3125 1
v -1.065625 0.2625 1.5
v -1.078125 0.2625 1
vt 0.25 0.625
vt 0.25 0.640625
vt 0.21875 0.640625
vt 0.21875 0.625
vt 0.390625 0.765625
vt 0.390625 0.78125
vt 0.359375 0.78125
vt 0.359375 0.765625
vt 0.328125 0.65625
vt 0.328125 0.6875
vt 0.3125 0.6875
vt 0.3125 0.65625
vt 0.359375 0.65625
vt 0.359375 0.6875
vt 0.34375 0.6875
vt 0.34375 0.65625
vt 0.328125 0.59375
vt 0.328125 0.609375
vt 0.3125 0.609375
vt 0.3125 0.59375
vt 0.359375 0.59375
vt 0.359375 0.609375
vt 0.34375 0.609375
vt 0.34375 0.59375
vt 0.875 0.828125
vt 0.875 0.84375
vt 0.21875 0.84375
vt 0.21875 0.828125
vt 0.875 0.796875
vt 0.875 0.8125
vt 0.21875 0.8125
vt 0.21875 0.796875
vt 0.03125 0.25
vt 0.03125 0.90625
vt 0 0.90625
vt 0 0.25
vt 0.078125 0.25
vt 0.078125 0.90625
vt 0.046875 0.90625
vt 0.046875 0.25
vt 0.65625 0.96875
vt 0.65625 1
vt 0 1
vt 0 0.96875
vt 0.65625 0.921875
vt 0.65625 0.953125
vt 0 0.953125
vt 0 0.921875
vt 0.09375 0.25
vt 0.109375 0.25
vt 0.109375 0.90625
vt 0.09375 0.90625
vt 0.125 0.25
vt 0.140625 0.25
vt 0.140625 0.90625
vt 0.125 0.90625
vt 0.8125 0.890625
vt 0.8125 0.90625
vt 0.15625 0.90625
vt 0.15625 0.890625
vt 0.8125 0.859375
vt 0.8125 0.875
vt 0.15625 0.875
vt 0.15625 0.859375
vt 0.171875 0.1875
vt 0.171875 0.84375
vt 0.15625 0.84375
vt 0.15625 0.1875
vt 0.203125 0.1875
vt 0.203125 0.84375
vt 0.1875 0.84375
vt 0.1875 0.1875
vn 0 0 1
vn 0 0 -1
vn 0 0 1
vn 0 0 -1
vn 0 0 1
vn 0 0 -1
vn 0.9996876464081228 0 0.024992191160203063
vn -0.9996876464081228 0 0.024992191160203063
vn 0 1 0
vn 0 -1 0
vn 0.9996876464081229 0 0.024992191160203077
vn -0.9996876464081229 0 0.024992191160203077
vn 0 -1 0
vn 0 1 0
vn 0.9996876464081228 0 0.024992191160203063
vn -0.9996876464081228 0 0.024992191160203063
vn 0 1 0
vn 0 -1 0
usemtl m_5d55c245-4be0-c77e-5930-198336f5514f
f 51/145/37 49/146/37 53/147/37 55/148/37
f 56/149/38 54/150/38 50/151/38 52/152/38
f 59/153/39 57/154/39 61/155/39 63/156/39
f 64/157/40 62/158/40 58/159/40 60/160/40
f 67/161/41 65/162/41 69/163/41 71/164/41
f 72/165/42 70/166/42 66/167/42 68/168/42
f 52/169/43 50/170/43 49/171/43 51/172/43
f 55/173/44 53/174/44 54/175/44 56/176/44
f 49/177/45 50/178/45 54/179/45 53/180/45
f 52/181/46 51/182/46 55/183/46 56/184/46
f 60/185/47 58/186/47 57/187/47 59/188/47
f 63/189/48 61/190/48 62/191/48 64/192/48
f 62/193/49 58/194/49 57/195/49 61/196/49
f 63/197/50 59/198/50 60/199/50 64/200/50
f 68/201/51 66/202/51 65/203/51 67/204/51
f 71/205/52 69/206/52 70/207/52 72/208/52
f 65/209/53 66/210/53 70/211/53 69/212/53
f 68/213/54 67/214/54 71/215/54 72/216/54
o cube
v -0.985625 0.134375 1.0625
v -0.985625 0.134375 0.9375
v -0.985625 0.09687499999999999 1.0625
v -0.985625 0.09687499999999999 0.9375
v -1.110625 0.134375 0.9375
v -1.110625 0.134375 1.0625
v -1.110625 0.09687499999999999 0.9375
v -1.110625 0.09687499999999999 1.0625
vt 0.359375 0.640625
vt 0.390625 0.640625
vt 0.390625 0.6328125
vt 0.359375 0.6328125
vt 0.375 0.6875
vt 0.40625 0.6875
vt 0.40625 0.6796875
vt 0.375 0.6796875
vt 0.21875 0.609375
vt 0.25 0.609375
vt 0.25 0.6015625
vt 0.21875 0.6015625
vt 0.265625 0.609375
vt 0.296875 0.609375
vt 0.296875 0.6015625
vt 0.265625 0.6015625
vt 0.25 0.75
vt 0.21875 0.75
vt 0.21875 0.78125
vt 0.25 0.78125
vt 0.25 0.734375
vt 0.21875 0.734375
vt 0.21875 0.703125
vt 0.25 0.703125
vn 0 0 -1
vn 1 0 0
vn 0 0 1
vn -1 0 0
vn 0 1 0
vn 0 -1 0
usemtl m_5d55c245-4be0-c77e-5930-198336f5514f
f 76/220/55 79/219/55 77/218/55 74/217/55
f 75/224/56 76/223/56 74/222/56 73/221/56
f 80/228/57 75/227/57 73/226/57 78/225/57
f 79/232/58 80/231/58 78/230/58 77/229/58
f 78/236/59 73/235/59 74/234/59 77/233/59
f 79/240/60 76/239/60 75/238/60 80/237/60
o cube
v -0.9781249999999999 0.153125 1.03125
v -0.9781249999999999 0.153125 0.96875
v -0.9781249999999999 0.14687500000000003 1.03125
v -0.9781249999999999 0.14687500000000003 0.96875
v -1.115625 0.153125 0.96875
v -1.115625 0.153125 1.03125
v -1.115625 0.14687500000000003 0.96875
v -1.115625 0.14687500000000003 1.03125
vt 0.375 0.609375
vt 0.40625 0.609375
vt 0.40625 0.6015625
vt 0.375 0.6015625
vt 0.34375 0.515625
vt 0.359375 0.515625
vt 0.359375 0.5078125
vt 0.34375 0.5078125
vt 0.40625 0.78125
vt 0.4375 0.78125
vt 0.4375 0.7734375
vt 0.40625 0.7734375
vt 0.484375 0.65625
vt 0.5 0.65625
vt 0.5 0.6484375
vt 0.484375 0.6484375
vt 0.390625 0.734375
vt 0.359375 0.734375
vt 0.359375 0.75
vt 0.390625 0.75
vt 0.296875 0.640625
vt 0.265625 0.640625
vt 0.265625 0.625
vt 0.296875 0.625
vn 0 0 -1
vn 1 0 0
vn 0 0 1
vn -1 0 0
vn 0 1 0
vn 0 -1 0
usemtl m_5d55c245-4be0-c77e-5930-198336f5514f
f 84/244/61 87/243/61 85/242/61 82/241/61
f 83/248/62 84/247/62 82/246/62 81/245/62
f 88/252/63 83/251/63 81/250/63 86/249/63
f 87/256/64 88/255/64 86/254/64 85/253/64
f 86/260/65 81/259/65 82/258/65 85/257/65
f 87/264/66 84/263/66 83/262/66 88/261/66
o cube
v -0.9739984122634726 0.1543509526419165 1.03125
v -0.9739984122634726 0.1543509526419165 0.96875
v -0.9771234122634725 0.14893829386826377 1.03125
v -0.9771234122634725 0.14893829386826377 0.96875
v -1.028125 0.1856009526419165 0.96875
v -1.028125 0.1856009526419165 1.03125
v -1.03125 0.18018829386826377 0.96875
v -1.03125 0.18018829386826377 1.03125
vt 0.484375 0.59375
vt 0.5 0.59375
vt 0.5 0.5859375
vt 0.484375 0.5859375
vt 0.484375 0.5625
vt 0.5 0.5625
vt 0.5 0.5546875
vt 0.484375 0.5546875
vt 0.484375 0.53125
vt 0.5 0.53125
vt 0.5 0.5234375
vt 0.484375 0.5234375
vt 0.5 0.78125
vt 0.515625 0.78125
vt 0.515625 0.7734375
vt 0.5 0.7734375
vt 0.421875 0.734375
vt 0.40625 0.734375
vt 0.40625 0.75
vt 0.421875 0.75
vt 0.421875 0.71875
vt 0.40625 0.71875
vt 0.40625 0.703125
vt 0.421875 0.703125
vn 0 0 -1
vn 0.8660254037844387 -0.49999999999999994 0
vn 0 0 1
vn -0.8660254037844387 0.49999999999999994 0
vn 0.49999999999999994 0.8660254037844387 0
vn -0.49999999999999994 -0.8660254037844387 0
usemtl m_5d55c245-4be0-c77e-5930-198336f5514f
f 92/268/67 95/267/67 93/266/67 90/265/67
f 91/272/68 92/271/68 90/270/68 89/269/68
f 96/276/69 91/275/69 89/274/69 94/273/69
f 95/280/70 96/279/70 94/278/70 93/277/70
f 94/284/71 89/283/71 90/282/71 93/281/71
f 95/288/72 92/287/72 91/286/72 96/285/72
o cube
v -1.0656250000000005 0.1856009526419165 1.03125
v -1.0656250000000005 0.1856009526419165 0.96875
v -1.0625000000000004 0.18018829386826377 1.03125
v -1.0625000000000004 0.18018829386826377 0.96875
v -1.1197515877365278 0.1543509526419165 0.96875
v -1.1197515877365278 0.1543509526419165 1.03125
v -1.1166265877365278 0.14893829386826377 0.96875
v -1.1166265877365278 0.14893829386826377 1.03125
vt 0.5 0.75
vt 0.515625 0.75
vt 0.515625 0.7421875
vt 0.5 0.7421875
vt 0.375 0.5
vt 0.390625 0.5
vt 0.390625 0.4921875
vt 0.375 0.4921875
vt 0.5 0.625
vt 0.515625 0.625
vt 0.515625 0.6171875
vt 0.5 0.6171875
vt 0.40625 0.5
vt 0.421875 0.5
vt 0.421875 0.4921875
vt 0.40625 0.4921875
vt 0.421875 0.640625
vt 0.40625 0.640625
vt 0.40625 0.65625
vt 0.421875 0.65625
vt 0.234375 0.578125
vt 0.21875 0.578125
vt 0.21875 0.5625
vt 0.234375 0.5625
vn 0 0 -1
vn 0.8660254037844387 0.49999999999999994 0
vn 0 0 1
vn -0.8660254037844387 -0.49999999999999994 0
vn -0.49999999999999994 0.8660254037844387 0
vn 0.49999999999999994 -0.8660254037844387 0
usemtl m_5d55c245-4be0-c77e-5930-198336f5514f
f 100/292/73 103/291/73 101/290/73 98/289/73
f 99/296/74 100/295/74 98/294/74 97/293/74
f 104/300/75 99/299/75 97/298/75 102/297/75
f 103/304/76 104/303/76 102/302/76 101/301/76
f 102/308/77 97/307/77 98/306/77 101/305/77
f 103/312/78 100/311/78 99/310/78 104/309/78
o cube
v -0.985625 0.08437499999999996 1.0625
v -0.985625 0.08437499999999996 0.9375
v -0.985625 0.04687499999999998 1.0625
v -0.985625 0.04687499999999998 0.9375
v -1.110625 0.08437499999999996 0.9375
v -1.110625 0.08437499999999996 1.0625
v -1.110625 0.04687499999999998 0.9375
v -1.110625 0.04687499999999998 1.0625
vt 0.25 0.578125
vt 0.28125 0.578125
vt 0.28125 0.5703125
vt 0.25 0.5703125
vt 0.296875 0.578125
vt 0.328125 0.578125
vt 0.328125 0.5703125
vt 0.296875 0.5703125
vt 0.421875 0.6875
vt 0.453125 0.6875
vt 0.453125 0.6796875
vt 0.421875 0.6796875
vt 0.34375 0.578125
vt 0.375 0.578125
vt 0.375 0.5703125
vt 0.34375 0.5703125
vt 0.296875 0.75
vt 0.265625 0.75
vt 0.265625 0.78125
vt 0.296875 0.78125
vt 0.296875 0.734375
vt 0.265625 0.734375
vt 0.265625 0.703125
vt 0.296875 0.703125
vn 0 0 -1
vn 1 0 0
vn 0 0 1
vn -1 0 0
vn 0 1 0
vn 0 -1 0
usemtl m_5d55c245-4be0-c77e-5930-198336f5514f
f 108/316/79 111/315/79 109/314/79 106/313/79
f 107/320/80 108/319/80 106/318/80 105/317/80
f 112/324/81 107/323/81 105/322/81 110/321/81
f 111/328/82 112/327/82 110/326/82 109/325/82
f 110/332/83 105/331/83 106/330/83 109/329/83
f 111/336/84 108/335/84 107/334/84 112/333/84
o cube
v -1.034375 0.14687500000000012 1.0125
v -1.034375 0.14687500000000012 0.9875
v -1.034375 -0.040625000000000105 1.0125
v -1.034375 -0.040625000000000105 0.9875
v -1.059375 0.14687500000000012 0.9875
v -1.059375 0.14687500000000012 1.0125
v -1.059375 -0.040625000000000105 0.9875
v -1.059375 -0.040625000000000105 1.0125
vt 0.421875 0.625
vt 0.4296875 0.625
vt 0.4296875 0.59375
vt 0.421875 0.59375
vt 0.390625 0.578125
vt 0.3984375 0.578125
vt 0.3984375 0.546875
vt 0.390625 0.546875
vt 0.421875 0.578125
vt 0.4296875 0.578125
vt 0.4296875 0.546875
vt 0.421875 0.546875
vt 0.4375 0.75
vt 0.4453125 0.75
vt 0.4453125 0.71875
vt 0.4375 0.71875
vt 0.2265625 0.4609375
vt 0.21875 0.4609375
vt 0.21875 0.46875
vt 0.2265625 0.46875
vt 0.5390625 0.78125
vt 0.53125 0.78125
vt 0.53125 0.7734375
vt 0.5390625 0.7734375
vn 0 0 -1
vn 1 0 0
vn 0 0 1
vn -1 0 0
vn 0 1 0
vn 0 -1 0
usemtl m_5d55c245-4be0-c77e-5930-198336f5514f
f 116/340/85 119/339/85 117/338/85 114/337/85
f 115/344/86 116/343/86 114/342/86 113/341/86
f 120/348/87 115/347/87 113/346/87 118/345/87
f 119/352/88 120/351/88 118/350/88 117/349/88
f 118/356/89 113/355/89 114/354/89 117/353/89
f 119/360/90 116/359/90 115/358/90 120/357/90
o cube
v -0.985625 0.134375 -0.9375
v -0.985625 0.134375 -1.0625
v -0.985625 0.09687499999999999 -0.9375
v -0.985625 0.09687499999999999 -1.0625
v -1.110625 0.134375 -1.0625
v -1.110625 0.134375 -0.9375
v -1.110625 0.09687499999999999 -1.0625
v -1.110625 0.09687499999999999 -0.9375
vt 0.4375 0.65625
vt 0.46875 0.65625
vt 0.46875 0.6484375
vt 0.4375 0.6484375
vt 0.21875 0.546875
vt 0.25 0.546875
vt 0.25 0.5390625
vt 0.21875 0.5390625
vt 0.453125 0.78125
vt 0.484375 0.78125
vt 0.484375 0.7734375
vt 0.453125 0.7734375
vt 0.265625 0.546875
vt 0.296875 0.546875
vt 0.296875 0.5390625
vt 0.265625 0.5390625
vt 0.25 0.65625
vt 0.21875 0.65625
vt 0.21875 0.6875
vt 0.25 0.6875
vt 0.34375 0.78125
vt 0.3125 0.78125
vt 0.3125 0.75
vt 0.34375 0.75
vn 0 0 -1
vn 1 0 0
vn 0 0 1
vn -1 0 0
vn 0 1 0
vn 0 -1 0
usemtl m_5d55c245-4be0-c77e-5930-198336f5514f
f 124/364/91 127/363/91 125/362/91 122/361/91
f 123/368/92 124/367/92 122/366/92 121/365/92
f 128/372/93 123/371/93 121/370/93 126/369/93
f 127/376/94 128/375/94 126/374/94 125/373/94
f 126/380/95 121/379/95 122/378/95 125/377/95
f 127/384/96 124/383/96 123/382/96 128/381/96
o cube
v -0.9781249999999999 0.153125 -0.96875
v -0.9781249999999999 0.153125 -1.03125
v -0.9781249999999999 0.14687500000000003 -0.96875
v -0.9781249999999999 0.14687500000000003 -1.03125
v -1.115625 0.153125 -1.03125
v -1.115625 0.153125 -0.96875
v -1.115625 0.14687500000000003 -1.03125
v -1.115625 0.14687500000000003 -0.96875
vt 0.3125 0.546875
vt 0.34375 0.546875
vt 0.34375 0.5390625
vt 0.3125 0.5390625
vt 0.4375 0.5
vt 0.453125 0.5
vt 0.453125 0.4921875
vt 0.4375 0.4921875
vt 0.453125 0.625
vt 0.484375 0.625
vt 0.484375 0.6171875
vt 0.453125 0.6171875
vt 0.46875 0.5
vt 0.484375 0.5
vt 0.484375 0.4921875
vt 0.46875 0.4921875
vt 0.390625 0.703125
vt 0.359375 0.703125
vt 0.359375 0.71875
vt 0.390625 0.71875
vt 0.34375 0.640625
vt 0.3125 0.640625
vt 0.3125 0.625
vt 0.34375 0.625
vn 0 0 -1
vn 1 0 0
vn 0 0 1
vn -1 0 0
vn 0 1 0
vn 0 -1 0
usemtl m_5d55c245-4be0-c77e-5930-198336f5514f
f 132/388/97 135/387/97 133/386/97 130/385/97
f 131/392/98 132/391/98 130/390/98 129/389/98
f 136/396/99 131/395/99 129/394/99 134/393/99
f 135/400/100 136/399/100 134/398/100 133/397/100
f 134/404/101 129/403/101 130/402/101 133/401/101
f 135/408/102 132/407/102 131/406/102 136/405/102
o cube
v -0.9739984122634726 0.1543509526419165 -0.96875
v -0.9739984122634726 0.1543509526419165 -1.03125
v -0.9771234122634725 0.14893829386826377 -0.96875
v -0.9771234122634725 0.14893829386826377 -1.03125
v -1.028125 0.1856009526419165 -1.03125
v -1.028125 0.1856009526419165 -0.96875
v -1.03125 0.18018829386826377 -1.03125
v -1.03125 0.18018829386826377 -0.96875
vt 0.5 0.5
vt 0.515625 0.5
vt 0.515625 0.4921875
vt 0.5 0.4921875
vt 0.515625 0.71875
vt 0.53125 0.71875
vt 0.53125 0.7109375
vt 0.515625 0.7109375
vt 0.515625 0.6875
vt 0.53125 0.6875
vt 0.53125 0.6796875
vt 0.515625 0.6796875
vt 0.34375 0.484375
vt 0.359375 0.484375
vt 0.359375 0.4765625
vt 0.34375 0.4765625
vt 0.375 0.53125
vt 0.359375 0.53125
vt 0.359375 0.546875
vt 0.375 0.546875
vt 0.46875 0.59375
vt 0.453125 0.59375
vt 0.453125 0.578125
vt 0.46875 0.578125
vn 0 0 -1
vn 0.8660254037844387 -0.49999999999999994 0
vn 0 0 1
vn -0.8660254037844387 0.49999999999999994 0
vn 0.49999999999999994 0.8660254037844387 0
vn -0.49999999999999994 -0.8660254037844387 0
usemtl m_5d55c245-4be0-c77e-5930-198336f5514f
f 140/412/103 143/411/103 141/410/103 138/409/103
f 139/416/104 140/415/104 138/414/104 137/413/104
f 144/420/105 139/419/105 137/418/105 142/417/105
f 143/424/106 144/423/106 142/422/106 141/421/106
f 142/428/107 137/427/107 138/426/107 141/425/107
f 143/432/108 140/431/108 139/430/108 144/429/108
o cube
v -1.0656250000000005 0.1856009526419165 -0.96875
v -1.0656250000000005 0.1856009526419165 -1.03125
v -1.0625000000000004 0.18018829386826377 -0.96875
v -1.0625000000000004 0.18018829386826377 -1.03125
v -1.1197515877365278 0.1543509526419165 -1.03125
v -1.1197515877365278 0.1543509526419165 -0.96875
v -1.1166265877365278 0.14893829386826377 -1.03125
v -1.1166265877365278 0.14893829386826377 -0.96875
vt 0.515625 0.65625
vt 0.53125 0.65625
vt 0.53125 0.6484375
vt 0.515625 0.6484375
vt 0.515625 0.59375
vt 0.53125 0.59375
vt 0.53125 0.5859375
vt 0.515625 0.5859375
vt 0.515625 0.5625
vt 0.53125 0.5625
vt 0.53125 0.5546875
vt 0.515625 0.5546875
vt 0.515625 0.53125
vt 0.53125 0.53125
vt 0.53125 0.5234375
vt 0.515625 0.5234375
vt 0.46875 0.546875
vt 0.453125 0.546875
vt 0.453125 0.5625
vt 0.46875 0.5625
vt 0.484375 0.75
vt 0.46875 0.75
vt 0.46875 0.734375
vt 0.484375 0.734375
vn 0 0 -1
vn 0.8660254037844387 0.49999999999999994 0
vn 0 0 1
vn -0.8660254037844387 -0.49999999999999994 0
vn -0.49999999999999994 0.8660254037844387 0
vn 0.49999999999999994 -0.8660254037844387 0
usemtl m_5d55c245-4be0-c77e-5930-198336f5514f
f 148/436/109 151/435/109 149/434/109 146/433/109
f 147/440/110 148/439/110 146/438/110 145/437/110
f 152/444/111 147/443/111 145/442/111 150/441/111
f 151/448/112 152/447/112 150/446/112 149/445/112
f 150/452/113 145/451/113 146/450/113 149/449/113
f 151/456/114 148/455/114 147/454/114 152/453/114
o cube
v -0.985625 0.08437499999999996 -0.9375
v -0.985625 0.08437499999999996 -1.0625
v -0.985625 0.04687499999999998 -0.9375
v -0.985625 0.04687499999999998 -1.0625
v -1.110625 0.08437499999999996 -1.0625
v -1.110625 0.08437499999999996 -0.9375
v -1.110625 0.04687499999999998 -1.0625
v -1.110625 0.04687499999999998 -0.9375
vt 0.46875 0.71875
vt 0.5 0.71875
vt 0.5 0.7109375
vt 0.46875 0.7109375
vt 0.46875 0.6875
vt 0.5 0.6875
vt 0.5 0.6796875
vt 0.46875 0.6796875
vt 0.390625 0.53125
vt 0.421875 0.53125
vt 0.421875 0.5234375
vt 0.390625 0.5234375
vt 0.4375 0.53125
vt 0.46875 0.53125
vt 0.46875 0.5234375
vt 0.4375 0.5234375
vt 0.296875 0.65625
vt 0.265625 0.65625
vt 0.265625 0.6875
vt 0.296875 0.6875
vt 0.34375 0.734375
vt 0.3125 0.734375
vt 0.3125 0.703125
vt 0.34375 0.703125
vn 0 0 -1
vn 1 0 0
vn 0 0 1
vn -1 0 0
vn 0 1 0
vn 0 -1 0
usemtl m_5d55c245-4be0-c77e-5930-198336f5514f
f 156/460/115 159/459/115 157/458/115 154/457/115
f 155/464/116 156/463/116 154/462/116 153/461/116
f 160/468/117 155/467/117 153/466/117 158/465/117
f 159/472/118 160/471/118 158/470/118 157/469/118
f 158/476/119 153/475/119 154/474/119 157/473/119
f 159/480/120 156/479/120 155/478/120 160/477/120
o cube
v -1.034375 0.14687500000000012 -0.9875
v -1.034375 0.14687500000000012 -1.0125
v -1.034375 -0.040625000000000105 -0.9875
v -1.034375 -0.040625000000000105 -1.0125
v -1.059375 0.14687500000000012 -1.0125
v -1.059375 0.14687500000000012 -0.9875
v -1.059375 -0.040625000000000105 -1.0125
v -1.059375 -0.040625000000000105 -0.9875
vt 0.21875 0.515625
vt 0.2265625 0.515625
vt 0.2265625 0.484375
vt 0.21875 0.484375
vt 0.25 0.515625
vt 0.2578125 0.515625
vt 0.2578125 0.484375
vt 0.25 0.484375
vt 0.28125 0.515625
vt 0.2890625 0.515625
vt 0.2890625 0.484375
vt 0.28125 0.484375
vt 0.3125 0.515625
vt 0.3203125 0.515625
vt 0.3203125 0.484375
vt 0.3125 0.484375
vt 0.2578125 0.4609375
vt 0.25 0.4609375
vt 0.25 0.46875
vt 0.2578125 0.46875
vt 0.5390625 0.75
vt 0.53125 0.75
vt 0.53125 0.7421875
vt 0.5390625 0.7421875
vn 0 0 -1
vn 1 0 0
vn 0 0 1
vn -1 0 0
vn 0 1 0
vn 0 -1 0
usemtl m_5d55c245-4be0-c77e-5930-198336f5514f
f 164/484/121 167/483/121 165/482/121 162/481/121
f 163/488/122 164/487/122 162/486/122 161/485/122
f 168/492/123 163/491/123 161/490/123 166/489/123
f 167/496/124 168/495/124 166/494/124 165/493/124
f 166/500/125 161/499/125 162/498/125 165/497/125
f 167/504/126 164/503/126 163/502/126 168/501/126