# Made in Blockbench 5.1.3
mtllib check_rail_inverted.mtl

o cube
v -0.625 0 0.0625
v -0.625 0 -0.0625
v -0.625 0 0.0625
v -0.625 0 -0.0625
v -0.6875 0 -0.0625
v -0.6875 0 0.0625
v -0.6875 0 -0.0625
v -0.6875 0 0.0625
vt 0.03125 0.9375
vt 0 0.9375
vt 0 0.9375
vt 0.03125 0.9375
vt 0.0625 0.9375
vt 0 0.9375
vt 0 0.9375
vt 0.0625 0.9375
vt 0.0625 0.9375
vt 0.03125 0.9375
vt 0.03125 0.9375
vt 0.0625 0.9375
vt 0.0625 0.9375
vt 0 0.9375
vt 0 0.9375
vt 0.0625 0.9375
vt 1 0.0625
vt 0.96875 0.0625
vt 0.96875 0
vt 1 0
vt 1 0.0625
vt 0.96875 0.0625
vt 0.96875 0
vt 1 0
vn 0 0 -1
vn 1 0 0
vn 0 0 1
vn -1 0 0
vn 0 1 0
vn 0 -1 0
usemtl m_91a973be-b3ab-e74e-8f72-4f51a5d70715
f 4/4/1 7/3/1 5/2/1 2/1/1
f 3/8/2 4/7/2 2/6/2 1/5/2
f 8/12/3 3/11/3 1/10/3 6/9/3
f 7/16/4 8/15/4 6/14/4 5/13/4
f 6/20/5 1/19/5 2/18/5 5/17/5
f 7/24/6 4/23/6 3/22/6 8/21/6
o cube
v 0.70625 0.19375000000000003 0.3125
v 0.70625 0.19375000000000003 -0.3125
v 0.70625 0.15624999999999994 0.3125
v 0.70625 0.15624999999999994 -0.3125
v 0.6375 0.19375000000000003 -0.3125
v 0.6375 0.19375000000000003 0.3125
v 0.6375 0.15624999999999994 -0.3125
v 0.6375 0.15624999999999994 0.3125
vt 0.21875 0.1875
vt 0.25 0.1875
vt 0.25 0.171875
vt 0.21875 0.171875
vt 0.375 0.75
vt 0.6875 0.75
vt 0.6875 0.734375
vt 0.375 0.734375
vt 0.8125 0.4375
vt 0.84375 0.4375
vt 0.84375 0.421875
vt 0.8125 0.421875
vt 0.3125 0.625
vt 0.625 0.625
vt 0.625 0.609375
vt 0.3125 0.609375
vt 0.03125 0.6875
vt 0 0.6875
vt 0 1
vt 0.03125 1
vt 0.09375 1
vt 0.0625 1
vt 0.0625 0.6875
vt 0.09375 0.6875
vn 0 0 -1
vn 1 0 0
vn 0 0 1
vn -1 0 0
vn 0 1 0
vn 0 -1 0
usemtl m_91a973be-b3ab-e74e-8f72-4f51a5d70715
f 12/28/7 15/27/7 13/26/7 10/25/7
f 11/32/8 12/31/8 10/30/8 9/29/8
f 16/36/9 11/35/9 9/34/9 14/33/9
f 15/40/10 16/39/10 14/38/10 13/37/10
f 14/44/11 9/43/11 10/42/11 13/41/11
f 15/48/12 12/47/12 11/46/12 16/45/12
o cube
v 0.70625 0.09374999999999997 0.3125
v 0.70625 0.09374999999999997 -0.3125
v 0.70625 0.08124999999999999 0.3125
v 0.70625 0.08124999999999999 -0.3125
v 0.6375 0.09374999999999997 -0.3125
v 0.6375 0.09374999999999997 0.3125
v 0.6375 0.08124999999999999 -0.3125
v 0.6375 0.08124999999999999 0.3125
vt 0.8125 0.375
vt 0.84375 0.375
vt 0.84375 0.359375
vt 0.8125 0.359375
vt 0.40625 0.875
vt 0.71875 0.875
vt 0.71875 0.859375
vt 0.40625 0.859375
vt 0.6875 0.1875
vt 0.71875 0.1875
vt 0.71875 0.171875
vt 0.6875 0.171875
vt 0.40625 0.8125
vt 0.71875 0.8125
vt 0.71875 0.796875
vt 0.40625 0.796875
vt 0.15625 0.6875
vt 0.125 0.6875
vt 0.125 1
vt 0.15625 1
vt 0.21875 1
vt 0.1875 1
vt 0.1875 0.6875
vt 0.21875 0.6875
vn 0 0 -1
vn 1 0 0
vn 0 0 1
vn -1 0 0
vn 0 1 0
vn 0 -1 0
usemtl m_91a973be-b3ab-e74e-8f72-4f51a5d70715
f 20/52/13 23/51/13 21/50/13 18/49/13
f 19/56/14 20/55/14 18/54/14 17/53/14
f 24/60/15 19/59/15 17/58/15 22/57/15
f 23/64/16 24/63/16 22/62/16 21/61/16
f 22/68/17 17/67/17 18/66/17 21/65/17
f 23/72/18 20/71/18 19/70/18 24/69/18
o cube
v 0.6874999999999999 0.15625 0.3125
v 0.6874999999999999 0.15625 -0.3125
v 0.6874999999999999 0.09374999999999999 0.3125
v 0.6874999999999999 0.09374999999999999 -0.3125
v 0.6562499999999999 0.15625 -0.3125
v 0.6562499999999999 0.15625 0.3125
v 0.6562499999999999 0.09374999999999999 -0.3125
v 0.6562499999999999 0.09374999999999999 0.3125
vt 0.75 0.1875
vt 0.765625 0.1875
vt 0.765625 0.15625
vt 0.75 0.15625
vt 0.25 1
vt 0.5625 1
vt 0.5625 0.96875
vt 0.25 0.96875
vt 0.8125 0.25
vt 0.828125 0.25
vt 0.828125 0.21875
vt 0.8125 0.21875
vt 0.25 0.9375
vt 0.5625 0.9375
vt 0.5625 0.90625
vt 0.25 0.90625
vt 0.328125 0.25
vt 0.3125 0.25
vt 0.3125 0.5625
vt 0.328125 0.5625
vt 0.390625 0.5625
vt 0.375 0.5625
vt 0.375 0.25
vt 0.390625 0.25
vn 0 0 -1
vn 1 0 0
vn 0 0 1
vn -1 0 0
vn 0 1 0
vn 0 -1 0
usemtl m_91a973be-b3ab-e74e-8f72-4f51a5d70715
f 28/76/19 31/75/19 29/74/19 26/73/19
f 27/80/20 28/79/20 26/78/20 25/77/20
f 32/84/21 27/83/21 25/82/21 30/81/21
f 31/88/22 32/87/22 30/86/22 29/85/22
f 30/92/23 25/91/23 26/90/23 29/89/23
f 31/96/24 28/95/24 27/94/24 32/93/24
o cube
v 0.70625 0.19375000000000003 -0.3125
v 0.68125 0.19375000000000003 -0.5625
v 0.70625 0.15624999999999994 -0.3125
v 0.68125 0.15624999999999994 -0.5625
v 0.6375 0.19375000000000003 -0.3125
v 0.6437499999999999 0.19375000000000003 -0.5625
v 0.6375 0.15624999999999994 -0.3125
v 0.6437499999999999 0.15624999999999994 -0.5625
vt 0.84375 0.921875
vt 0.84375 0.9375
vt 0.71875 0.9375
vt 0.71875 0.921875
vt 0.8125 0.296875
vt 0.8125 0.3125
vt 0.6875 0.3125
vt 0.6875 0.296875
vt 0.125 0.2475108600043452
vt 0.125 0.3731343052683562
vt 0.10929745609703108 0.375
vt 0.09375 0.250931300345692
vt 0.153125 0.40625
vt 0.165625 0.53125
vt 0.13125 0.53125
vt 0.134375 0.40625
vt 0.84375 0.171875
vt 0.84375 0.1875
vt 0.8125 0.1875
vt 0.8125 0.171875
vt 0.484375 0.109375
vt 0.484375 0.125
vt 0.46875 0.125
vt 0.46875 0.109375
vn 0.9950371902099893 0 -0.09950371902099894
vn -0.9996876464081228 0 -0.02499219116020307
vn 0 1 0
vn 0 -1 0
vn 0 0 1
vn 0 0 -1
usemtl m_91a973be-b3ab-e74e-8f72-4f51a5d70715
f 36/97/25 34/98/25 33/99/25 35/100/25
f 39/101/26 37/102/26 38/103/26 40/104/26
f 33/105/27 34/106/27 38/107/27 37/108/27
f 36/109/28 35/110/28 39/111/28 40/112/28
f 35/113/29 33/114/29 37/115/29 39/116/29
f 40/117/30 38/118/30 34/119/30 36/120/30
o cube
v 0.70625 0.09374999999999997 -0.3125
v 0.7000000000000001 0.09374999999999997 -0.5625
v 0.70625 0.08124999999999999 -0.3125
v 0.7000000000000001 0.08124999999999999 -0.5625
v 0.6375 0.09374999999999997 -0.3125
v 0.6437499999999999 0.09374999999999997 -0.5625
v 0.6375 0.08124999999999999 -0.3125
v 0.6437499999999999 0.08124999999999999 -0.5625
vt 0.84375 0.734375
vt 0.84375 0.75
vt 0.71875 0.75
vt 0.71875 0.734375
vt 0.84375 0.671875
vt 0.84375 0.6875
vt 0.71875 0.6875
vt 0.71875 0.671875
vt 0.25 0.2492580382252283
vt 0.25 0.37429709462361926
vt 0.22499804779005075 0.375
vt 0.21875 0.25011714479636027
vt 0.25625 0.40625
vt 0.259375 0.53125
vt 0.225 0.53125
vt 0.228125 0.40625
vt 0.59375 0.140625
vt 0.59375 0.15625
vt 0.5625 0.15625
vt 0.5625 0.140625
vt 0.875 0.296875
vt 0.875 0.3125
vt 0.84375 0.3125
vt 0.84375 0.296875
vn 0.9996876464081229 0 -0.02499219116020307
vn -0.9996876464081229 0 -0.024992191160203077
vn 0 1 0
vn 0 -1 0
vn 0 0 1
vn 0 0 -1
usemtl m_91a973be-b3ab-e74e-8f72-4f51a5d70715
f 44/121/31 42/122/31 41/123/31 43/124/31
f 47/125/32 45/126/32 46/127/32 48/128/32
f 41/129/33 42/130/33 46/131/33 45/132/33
f 44/133/34 43/134/34 47/135/34 48/136/34
f 43/137/35 41/138/35 45/139/35 47/140/35
f 48/141/36 46/142/36 42/143/36 44/144/36
o cube
v 0.6874999999999999 0.15625 -0.3125
v 0.6812499999999999 0.15625 -0.5625
v 0.6874999999999999 0.09374999999999999 -0.3125
v 0.6812499999999999 0.09374999999999999 -0.5625
v 0.6562499999999999 0.15625 -0.3125
v 0.6562499999999999 0.15625 -0.5625
v 0.6562499999999999 0.09374999999999999 -0.3125
v 0.6562499999999999 0.09374999999999999 -0.5625
vt 0.6875 0.65625
vt 0.6875 0.6875
vt 0.5625 0.6875
vt 0.5625 0.65625
vt 0.53125 0.65625
vt 0.53125 0.6875
vt 0.40625 0.6875
vt 0.40625 0.65625
vt 0.703125 0.37464854121210645
vt 0.703125 0.4996875976104974
vt 0.6906240238950253 0.5
vt 0.6875 0.3750390441989846
vt 0.575 0.1875
vt 0.578125 0.3125
vt 0.5625 0.3125
vt 0.5625 0.1875
vt 0.015625 0.09375
vt 0.015625 0.125
vt 0 0.125
vt 0 0.09375
vt 0.078125 0.09375
vt 0.078125 0.125
vt 0.0625 0.125
vt 0.0625 0.09375
vn 0.9996876464081228 0 -0.024992191160203066
vn -1 0 0
vn 0 1 0
vn 0 -1 0
vn 0 0 1
vn 0 0 -1
usemtl m_91a973be-b3ab-e74e-8f72-4f51a5d70715
f 52/145/37 50/146/37 49/147/37 51/148/37
f 55/149/38 53/150/38 54/151/38 56/152/38
f 49/153/39 50/154/39 54/155/39 53/156/39
f 52/157/40 51/158/40 55/159/40 56/160/40
f 51/161/41 49/162/41 53/163/41 55/164/41
f 56/165/42 54/166/42 50/167/42 52/168/42
o cube
v 0.70625 0.19375000000000003 0.3125
v 0.68125 0.19375000000000003 0.5625
v 0.70625 0.15624999999999994 0.3125
v 0.68125 0.15624999999999994 0.5625
v 0.6375 0.19375000000000003 0.3125
v 0.6437499999999999 0.19375000000000003 0.5625
v 0.6375 0.15624999999999994 0.3125
v 0.6437499999999999 0.15624999999999994 0.5625
vt 0.875 1
vt 0.75 1
vt 0.75 0.984375
vt 0.875 0.984375
vt 0.84375 0.5625
vt 0.71875 0.5625
vt 0.71875 0.546875
vt 0.84375 0.546875
vt 0.446875 0.34375
vt 0.465625 0.34375
vt 0.478125 0.46875
vt 0.44375 0.46875
vt 0.15625 0.2377954403413468
vt 0.1875 0.234375
vt 0.1875 0.35999844526401115
vt 0.1717974560970311 0.3618641399956548
vt 0.90625 0.9375
vt 0.875 0.9375
vt 0.875 0.921875
vt 0.90625 0.921875
vt 0.890625 0.4375
vt 0.875 0.4375
vt 0.875 0.421875
vt 0.890625 0.421875
vn 0.9950371902099893 0 0.09950371902099894
vn -0.9996876464081228 0 0.02499219116020307
vn 0 1 0
vn 0 -1 0
vn 0 0 -1
vn 0 0 1
usemtl m_91a973be-b3ab-e74e-8f72-4f51a5d70715
f 57/169/43 58/170/43 60/171/43 59/172/43
f 62/173/44 61/174/44 63/175/44 64/176/44
f 62/177/45 58/178/45 57/179/45 61/180/45
f 63/181/46 59/182/46 60/183/46 64/184/46
f 61/185/47 57/186/47 59/187/47 63/188/47
f 58/189/48 62/190/48 64/191/48 60/192/48
o cube
v 0.70625 0.09374999999999997 0.3125
v 0.7000000000000001 0.09374999999999997 0.5625
v 0.70625 0.08124999999999999 0.3125
v 0.7000000000000001 0.08124999999999999 0.5625
v 0.6375 0.09374999999999997 0.3125
v 0.6437499999999999 0.09374999999999997 0.5625
v 0.6375 0.08124999999999999 0.3125
v 0.6437499999999999 0.08124999999999999 0.5625
vt 0.875 0.875
vt 0.75 0.875
vt 0.75 0.859375
vt 0.875 0.859375
vt 0.875 0.8125
vt 0.75 0.8125
vt 0.75 0.796875
vt 0.875 0.796875
vt 0.540625 0.34375
vt 0.56875 0.34375
vt 0.571875 0.46875
vt 0.5375 0.46875
vt 0.006249999999999999 0.3125
vt 0.040625 0.3125
vt 0.0375 0.4375
vt 0.009374999999999998 0.4375
vt 0.25 0.125
vt 0.21875 0.125
vt 0.21875 0.109375
vt 0.25 0.109375
vt 0.90625 0.75
vt 0.875 0.75
vt 0.875 0.734375
vt 0.90625 0.734375
vn 0.9996876464081229 0 0.02499219116020307
vn -0.9996876464081229 0 0.024992191160203077
vn 0 1 0
vn 0 -1 0
vn 0 0 -1
vn 0 0 1
usemtl m_91a973be-b3ab-e74e-8f72-4f51a5d70715
f 65/193/49 66/194/49 68/195/49 67/196/49
f 70/197/50 69/198/50 71/199/50 72/200/50
f 70/201/51 66/202/51 65/203/51 69/204/51
f 71/205/52 67/206/52 68/207/52 72/208/52
f 69/209/53 65/210/53 67/211/53 71/212/53
f 66/213/54 70/214/54 72/215/54 68/216/54
o cube
v 0.6874999999999999 0.15625 0.3125
v 0.6812499999999999 0.15625 0.5625
v 0.6874999999999999 0.09374999999999999 0.3125
v 0.6812499999999999 0.09374999999999999 0.5625
v 0.6562499999999999 0.15625 0.3125
v 0.6562499999999999 0.15625 0.5625
v 0.6562499999999999 0.09374999999999999 0.3125
v 0.6562499999999999 0.09374999999999999 0.5625
vt 0.71875 1
vt 0.59375 1
vt 0.59375 0.96875
vt 0.71875 0.96875
vt 0.6875 0.5625
vt 0.5625 0.5625
vt 0.5625 0.53125
vt 0.6875 0.53125
vt 0 0.15625
vt 0.0125 0.15625
vt 0.015625 0.28125
vt 0 0.28125
vt 0.75 0.375
vt 0.765625 0.375
vt 0.7625 0.5
vt 0.75 0.5
vt 0.890625 0.6875
vt 0.875 0.6875
vt 0.875 0.65625
vt 0.890625 0.65625
vt 0.890625 0.625
vt 0.875 0.625
vt 0.875 0.59375
vt 0.890625 0.59375
vn 0.9996876464081228 0 0.024992191160203066
vn -1 0 0
vn 0 1 0
vn 0 -1 0
vn 0 0 -1
vn 0 0 1
usemtl m_91a973be-b3ab-e74e-8f72-4f51a5d70715
f 73/217/55 74/218/55 76/219/55 75/220/55
f 78/221/56 77/222/56 79/223/56 80/224/56
f 78/225/57 74/226/57 73/227/57 77/228/57
f 79/229/58 75/230/58 76/231/58 80/232/58
f 77/233/59 73/234/59 75/235/59 79/236/59
f 74/237/60 78/238/60 80/239/60 76/240/60
o cube
v 0.6499999999999999 0.1875 0.037500000000000006
v 0.6499999999999999 0.1875 -0.037500000000000006
v 0.6499999999999999 0 0.037500000000000006
v 0.6499999999999999 0 -0.037500000000000006
v 0.6187499999999999 0.1875 -0.037500000000000006
v 0.6187499999999999 0.1875 0.037500000000000006
v 0.6187499999999999 0 -0.037500000000000006
v 0.6187499999999999 0 0.037500000000000006
vt 0.28125 0.21875
vt 0.296875 0.21875
vt 0.296875 0.125
vt 0.28125 0.125
vt 0.625 0.5
vt 0.65625 0.5
vt 0.65625 0.40625
vt 0.625 0.40625
vt 0.34375 0.21875
vt 0.359375 0.21875
vt 0.359375 0.125
vt 0.34375 0.125
vt 0.625 0.375
vt 0.65625 0.375
vt 0.65625 0.28125
vt 0.625 0.28125
vt 0.421875 0.09375
vt 0.40625 0.09375
vt 0.40625 0.125
vt 0.421875 0.125
vt 0.890625 0.5625
vt 0.875 0.5625
vt 0.875 0.53125
vt 0.890625 0.53125
vn 0 0 -1
vn 1 0 0
vn 0 0 1
vn -1 0 0
vn 0 1 0
vn 0 -1 0
usemtl m_91a973be-b3ab-e74e-8f72-4f51a5d70715
f 84/244/61 87/243/61 85/242/61 82/241/61
f 83/248/62 84/247/62 82/246/62 81/245/62
f 88/252/63 83/251/63 81/250/63 86/249/63
f 87/256/64 88/255/64 86/254/64 85/253/64
f 86/260/65 81/259/65 82/258/65 85/257/65
f 87/264/66 84/263/66 83/262/66 88/261/66
o cube
v 0.625 0.049999999999999996 0.05
v 0.625 0.049999999999999996 -0.05
v 0.625 0 0.05
v 0.625 0 -0.05
v 0.44375000000000003 0.049999999999999996 -0.05
v 0.44375000000000003 0.049999999999999996 0.05
v 0.44375000000000003 0 -0.05
v 0.44375000000000003 0 0.05
vt 0.59375 0.9375
vt 0.6875 0.9375
vt 0.6875 0.90625
vt 0.59375 0.90625
vt 0.78125 0.625
vt 0.828125 0.625
vt 0.828125 0.59375
vt 0.78125 0.59375
vt 0.65625 0.625
vt 0.75 0.625
vt 0.75 0.59375
vt 0.65625 0.59375
vt 0.0625 0.1875
vt 0.109375 0.1875
vt 0.109375 0.15625
vt 0.0625 0.15625
vt 0.53125 0.515625
vt 0.4375 0.515625
vt 0.4375 0.5625
vt 0.53125 0.5625
vt 0.09375 0.53125
vt 0 0.53125
vt 0 0.484375
vt 0.09375 0.484375
vn 0 0 -1
vn 1 0 0
vn 0 0 1
vn -1 0 0
vn 0 1 0
vn 0 -1 0
usemtl m_91a973be-b3ab-e74e-8f72-4f51a5d70715
f 92/268/67 95/267/67 93/266/67 90/265/67
f 91/272/68 92/271/68 90/270/68 89/269/68
f 96/276/69 91/275/69 89/274/69 94/273/69
f 95/280/70 96/279/70 94/278/70 93/277/70
f 94/284/71 89/283/71 90/282/71 93/281/71
f 95/288/72 92/287/72 91/286/72 96/285/72
o cube
v 0.6187499999999998 0.1875 -0.012499999999999949
v 0.6187499999999998 0.1875 -0.031249999999999965
v 0.6187499999999998 0 -0.012499999999999949
v 0.6187499999999998 0 -0.031249999999999965
v 0.41874999999999984 0 -0.012499999999999949
v 0.41874999999999984 0 -0.031249999999999965
vt 0.171875 0.09375
vt 0.171875 0.1875
vt 0.15625 0.1875
vt 0.15625 0.09375
vt 0.515625 0.3125
vt 0.5 0.3125
vt 0.5 0.171875
vt 0.515625 0.171875
vt 0.90625 0.484375
vt 0.90625 0.5
vt 0.8125 0.5
vt 0.8125 0.484375
vt 0.1046875 0.65625
vt 0.004687499999999997 0.5625
vt 0.1046875 0.5625
vt 0.2609375 0.5625
vt 0.1609375 0.65625
vt 0.1609375 0.5625
vn 1 0 0
vn -0.6839411288813297 0.7295372041400852 0
vn 0 -1 0
vn 0 0 1
vn 0 0 -1
usemtl m_91a973be-b3ab-e74e-8f72-4f51a5d70715
f 100/289/73 98/290/73 97/291/73 99/292/73
f 97/293/74 98/294/74 102/295/74 101/296/74
f 100/297/75 99/298/75 101/299/75 102/300/75
f 97/301/76 101/302/76 99/303/76
f 102/304/77 98/305/77 100/306/77
o cube
v 0.6187499999999998 0.1875 0.031250000000000014
v 0.6187499999999998 0.1875 0.012499999999999997
v 0.6187499999999998 0 0.031250000000000014
v 0.6187499999999998 0 0.012499999999999997
v 0.41874999999999984 0 0.031250000000000014
v 0.41874999999999984 0 0.012499999999999997
vt 0.640625 0.15625
vt 0.640625 0.25
vt 0.625 0.25
vt 0.625 0.15625
vt 0.453125 0.3125
vt 0.4375 0.3125
vt 0.4375 0.171875
vt 0.453125 0.171875
vt 0.78125 0.234375
vt 0.78125 0.25
vt 0.6875 0.25
vt 0.6875 0.234375
vt 0.3546875 0.875
vt 0.2546875 0.78125
vt 0.3546875 0.78125
vt 0.3546875 0.65625
vt 0.2546875 0.75
vt 0.2546875 0.65625
vn 1 0 0
vn -0.6839411288813297 0.7295372041400852 0
vn 0 -1 0
vn 0 0 1
vn 0 0 -1
usemtl m_91a973be-b3ab-e74e-8f72-4f51a5d70715
f 106/307/78 104/308/78 103/309/78 105/310/78
f 103/311/79 104/312/79 108/313/79 107/314/79
f 106/315/80 105/316/80 107/317/80 108/318/80
f 103/319/81 107/320/81 105/321/81
f 108/322/82 104/323/82 106/324/82
o cube
v 0.6499999999999999 0.1875 0.037500000000000006
v 0.6499999999999999 0.1875 -0.037500000000000006
v 0.6499999999999999 0 0.037500000000000006
v 0.6499999999999999 0 -0.037500000000000006
v 0.6187499999999999 0.1875 -0.037500000000000006
v 0.6187499999999999 0.1875 0.037500000000000006
v 0.6187499999999999 0 -0.037500000000000006
v 0.6187499999999999 0 0.037500000000000006
vt 0.28125 0.21875
vt 0.296875 0.21875
vt 0.296875 0.125
vt 0.28125 0.125
vt 0.625 0.5
vt 0.65625 0.5
vt 0.65625 0.40625
vt 0.625 0.40625
vt 0.34375 0.21875
vt 0.359375 0.21875
vt 0.359375 0.125
vt 0.34375 0.125
vt 0.625 0.375
vt 0.65625 0.375
vt 0.65625 0.28125
vt 0.625 0.28125
vt 0.421875 0.09375
vt 0.40625 0.09375
vt 0.40625 0.125
vt 0.421875 0.125
vt 0.890625 0.5625
vt 0.875 0.5625
vt 0.875 0.53125
vt 0.890625 0.53125
vn 0 0 -1
vn 1 0 0
vn 0 0 1
vn -1 0 0
vn 0 1 0
vn 0 -1 0
usemtl m_91a973be-b3ab-e74e-8f72-4f51a5d70715
f 112/328/83 115/327/83 113/326/83 110/325/83
f 111/332/84 112/331/84 110/330/84 109/329/84
f 116/336/85 111/335/85 109/334/85 114/333/85
f 115/340/86 116/339/86 114/338/86 113/337/86
f 114/344/87 109/343/87 110/342/87 113/341/87
f 115/348/88 112/347/88 111/346/88 116/345/88
o cube
v 0.625 0.049999999999999996 0.05
v 0.625 0.049999999999999996 -0.05
v 0.625 0 0.05
v 0.625 0 -0.05
v 0.44375000000000003 0.049999999999999996 -0.05
v 0.44375000000000003 0.049999999999999996 0.05
v 0.44375000000000003 0 -0.05
v 0.44375000000000003 0 0.05
vt 0.59375 0.9375
vt 0.6875 0.9375
vt 0.6875 0.90625
vt 0.59375 0.90625
vt 0.78125 0.625
vt 0.828125 0.625
vt 0.828125 0.59375
vt 0.78125 0.59375
vt 0.65625 0.625
vt 0.75 0.625
vt 0.75 0.59375
vt 0.65625 0.59375
vt 0.0625 0.1875
vt 0.109375 0.1875
vt 0.109375 0.15625
vt 0.0625 0.15625
vt 0.53125 0.515625
vt 0.4375 0.515625
vt 0.4375 0.5625
vt 0.53125 0.5625
vt 0.09375 0.53125
vt 0 0.53125
vt 0 0.484375
vt 0.09375 0.484375
vn 0 0 -1
vn 1 0 0
vn 0 0 1
vn -1 0 0
vn 0 1 0
vn 0 -1 0
usemtl m_91a973be-b3ab-e74e-8f72-4f51a5d70715
f 120/352/89 123/351/89 121/350/89 118/349/89
f 119/356/90 120/355/90 118/354/90 117/353/90
f 124/360/91 119/359/91 117/358/91 122/357/91
f 123/364/92 124/363/92 122/362/92 121/361/92
f 122/368/93 117/367/93 118/366/93 121/365/93
f 123/372/94 120/371/94 119/370/94 124/369/94
o cube
v 0.6187499999999998 0.1875 -0.012499999999999949
v 0.6187499999999998 0.1875 -0.031249999999999965
v 0.6187499999999998 0 -0.012499999999999949
v 0.6187499999999998 0 -0.031249999999999965
v 0.41874999999999984 0 -0.012499999999999949
v 0.41874999999999984 0 -0.031249999999999965
vt 0.171875 0.09375
vt 0.171875 0.1875
vt 0.15625 0.1875
vt 0.15625 0.09375
vt 0.515625 0.3125
vt 0.5 0.3125
vt 0.5 0.171875
vt 0.515625 0.171875
vt 0.90625 0.484375
vt 0.90625 0.5
vt 0.8125 0.5
vt 0.8125 0.484375
vt 0.1046875 0.65625
vt 0.004687499999999997 0.5625
vt 0.1046875 0.5625
vt 0.2609375 0.5625
vt 0.1609375 0.65625
vt 0.1609375 0.5625
vn 1 0 0
vn -0.6839411288813297 0.7295372041400852 0
vn 0 -1 0
vn 0 0 1
vn 0 0 -1
usemtl m_91a973be-b3ab-e74e-8f72-4f51a5d70715
f 128/373/95 126/374/95 125/375/95 127/376/95
f 125/377/96 126/378/96 130/379/96 129/380/96
f 128/381/97 127/382/97 129/383/97 130/384/97
f 125/385/98 129/386/98 127/387/98
f 130/388/99 126/389/99 128/390/99
o cube
v 0.6187499999999998 0.1875 0.031250000000000014
v 0.6187499999999998 0.1875 0.012499999999999997
v 0.6187499999999998 0 0.031250000000000014
v 0.6187499999999998 0 0.012499999999999997
v 0.41874999999999984 0 0.031250000000000014
v 0.41874999999999984 0 0.012499999999999997
vt 0.640625 0.15625
vt 0.640625 0.25
vt 0.625 0.25
vt 0.625 0.15625
vt 0.453125 0.3125
vt 0.4375 0.3125
vt 0.4375 0.171875
vt 0.453125 0.171875
vt 0.78125 0.234375
vt 0.78125 0.25
vt 0.6875 0.25
vt 0.6875 0.234375
vt 0.3546875 0.875
vt 0.2546875 0.78125
vt 0.3546875 0.78125
vt 0.3546875 0.65625
vt 0.2546875 0.75
vt 0.2546875 0.65625
vn 1 0 0
vn -0.6839411288813297 0.7295372041400852 0
vn 0 -1 0
vn 0 0 1
vn 0 0 -1
usemtl m_91a973be-b3ab-e74e-8f72-4f51a5d70715
f 134/391/100 132/392/100 131/393/100 133/394/100
f 131/395/101 132/396/101 136/397/101 135/398/101
f 134/399/102 133/400/102 135/401/102 136/402/102
f 131/403/103 135/404/103 133/405/103
f 136/406/104 132/407/104 134/408/104